<svg width="24" height="24" viewBox="0 0 24 24" fill="none" xmlns="http://www.w3.org/2000/svg">
<path fill-rule="evenodd" clip-rule="evenodd" d="M3.5 10.3178C3.5 5.71789 7.34388 2 11.9934 2C16.6561 2 20.5 5.71789 20.5 10.3178C20.5 12.6357 19.657 14.7876 18.2695 16.6116C16.7388 18.6235 14.8522 20.3765 12.7285 21.7524C12.2425 22.0704 11.8039 22.0944 11.2704 21.7524C9.13474 20.3765 7.24809 18.6235 5.7305 16.6116C4.34198 14.7876 3.5 12.6357 3.5 10.3178ZM9.19336 10.5767C9.19336 12.1177 10.4508 13.3297 11.9926 13.3297C13.5354 13.3297 14.8049 12.1177 14.8049 10.5767C14.8049 9.04779 13.5354 7.77682 11.9926 7.77682C10.4508 7.77682 9.19336 9.04779 9.19336 10.5767Z" fill="#090909"/>
</svg>
