<svg width="34" height="34" viewBox="0 0 34 34" fill="none" xmlns="http://www.w3.org/2000/svg">
<g clip-path="url(#clip0_131_359)">
<path d="M7.45268 8.82088C7.55937 8.85114 7.55937 8.85114 7.66821 8.88201C7.90299 8.94885 8.13735 9.01703 8.37173 9.08521C8.53728 9.13257 8.70286 9.17984 8.86845 9.22702C9.36248 9.36803 9.856 9.51075 10.3494 9.65382C10.5442 9.71027 10.7389 9.76668 10.9337 9.82308C11.0332 9.85191 11.1327 9.88074 11.2323 9.90958C11.4815 9.98178 11.7308 10.0539 11.9801 10.126C12.029 10.1401 12.078 10.1543 12.1284 10.1689C12.2266 10.1973 12.3248 10.2257 12.423 10.254C12.7098 10.337 12.9964 10.4204 13.2829 10.5043C13.4634 10.557 13.644 10.6094 13.8247 10.6618C13.9469 10.6973 14.0689 10.7333 14.191 10.7692C16.008 11.2945 17.6645 11.3407 19.4896 10.8426C19.5613 10.8232 19.6331 10.8037 19.707 10.7837C21.0213 10.4243 22.33 10.0442 23.6398 9.66862C24.236 9.49769 24.8323 9.32701 25.4286 9.15633C25.6357 9.09704 25.8427 9.03768 26.0497 8.97832C26.1757 8.94223 26.3016 8.90615 26.4276 8.87007C26.4848 8.85365 26.542 8.83724 26.6009 8.82032C26.6535 8.80526 26.7061 8.79019 26.7604 8.77467C26.8059 8.76163 26.8514 8.74858 26.8982 8.73514C27.4737 8.57557 28.08 8.54446 28.6215 8.83204C29.1084 9.17421 29.3637 9.53126 29.5512 10.0938C29.6095 10.7838 29.5284 11.28 29.0809 11.8149C28.8257 12.1001 28.55 12.2722 28.2148 12.4512C28.1251 12.5007 28.1251 12.5007 28.0337 12.5512C27.9024 12.6237 27.7707 12.6957 27.6389 12.7672C27.4152 12.8888 27.1923 13.0118 26.9696 13.1352C26.6453 13.3148 26.3207 13.494 25.9958 13.6727C25.8307 13.7636 25.6655 13.8544 25.5004 13.9453C25.4595 13.9678 25.4187 13.9903 25.3766 14.0134C25.0967 14.1675 24.8171 14.322 24.5375 14.4766C24.4667 14.5155 24.3959 14.5544 24.323 14.5945C22.8386 15.4136 22.8386 15.4136 21.9601 16.8215C21.8049 17.6541 21.9951 18.4465 22.1644 19.2605C22.1913 19.393 22.2181 19.5255 22.2449 19.6581C22.3023 19.942 22.3603 20.2259 22.4187 20.5096C22.5111 20.9592 22.6023 21.409 22.6932 21.8589C22.9192 22.9761 23.1469 24.0929 23.375 25.2097C23.5523 26.0782 23.7292 26.9468 23.9046 27.8157C23.9948 28.262 24.086 28.7082 24.1779 29.1541C24.235 29.4327 24.2913 29.7114 24.3474 29.9901C24.3734 30.1184 24.3997 30.2465 24.4264 30.3746C24.8475 32.3959 24.8475 32.3959 24.4075 33.1292C24.0994 33.5513 23.7628 33.8758 23.2426 34C22.5469 34.0762 21.9769 34.0299 21.4106 33.5852C21.0014 33.224 20.8088 32.7488 20.5905 32.261C20.5473 32.1665 20.504 32.072 20.4606 31.9776C20.3237 31.6785 20.1891 31.3785 20.0551 31.0781C20.0336 31.0301 20.0122 30.982 19.9901 30.9325C19.796 30.4973 19.603 30.0616 19.4103 29.6258C19.078 28.8749 18.7398 28.1267 18.3962 27.3808C18.3405 27.2595 18.2848 27.1382 18.2293 27.0167C18.1518 26.8472 18.0737 26.678 17.9955 26.5088C17.9726 26.4586 17.9497 26.4083 17.9262 26.3565C17.7758 26.0341 17.6274 25.7292 17.3117 25.5415C17.0726 25.4859 16.9062 25.507 16.6684 25.5664C16.3871 25.7532 16.2631 25.9342 16.1234 26.2388C16.0953 26.2991 16.0953 26.2991 16.0666 26.3607C16.0049 26.494 15.9444 26.6278 15.8839 26.7617C15.8401 26.8571 15.7962 26.9525 15.7522 27.0479C15.437 27.734 15.1313 28.4245 14.8256 29.115C14.4516 29.9595 14.0762 30.8034 13.6923 31.6434C13.6377 31.7633 13.5835 31.8833 13.5295 32.0034C13.1655 32.8136 12.8482 33.5141 12.0199 33.9336C11.5278 34.0976 10.8602 34.0849 10.3888 33.863C9.88829 33.5627 9.51156 33.1799 9.36368 32.6055C9.29143 31.7746 9.44477 30.9957 9.61361 30.1864C9.64052 30.0535 9.66735 29.9207 9.69408 29.7878C9.75143 29.5037 9.80941 29.2197 9.8679 28.9359C9.9605 28.4864 10.0516 28.0366 10.1424 27.5868C10.319 26.7133 10.4971 25.8401 10.6754 24.9669C10.9024 23.8548 11.129 22.7427 11.3539 21.6301C11.4441 21.1836 11.5353 20.7372 11.6271 20.291C11.6841 20.0129 11.7405 19.7347 11.7966 19.4564C11.8227 19.3281 11.849 19.1998 11.8757 19.0716C12.0872 18.0533 12.2845 17.0709 11.733 16.118C11.2898 15.4883 10.6743 15.1314 10.007 14.7754C9.92136 14.729 9.83577 14.6826 9.75022 14.6361C9.57452 14.5407 9.39868 14.4455 9.22273 14.3505C8.75969 14.1001 8.30049 13.8427 7.84083 13.5862C7.49689 13.3944 7.15257 13.2036 6.80609 13.0165C6.6433 12.9285 6.48083 12.84 6.31838 12.7514C6.20526 12.69 6.09168 12.6295 5.97809 12.5689C5.24165 12.1666 4.72033 11.7692 4.44962 10.957C4.38982 10.2493 4.48612 9.76361 4.93106 9.20972C5.61987 8.4661 6.55604 8.55599 7.45268 8.82088Z" fill="#090909"/>
<path d="M19.5898 0.730438C19.8278 0.915071 20.0423 1.11398 20.2539 1.32809C20.301 1.37372 20.3481 1.41935 20.3966 1.46635C21.2381 2.33526 21.5463 3.52222 21.5335 4.70392C21.476 5.90331 20.961 6.99354 20.0885 7.81331C19.0531 8.73281 17.8536 9.03854 16.5003 8.97778C15.2769 8.88126 14.2117 8.20952 13.4252 7.29636C12.6432 6.25936 12.3376 5.03187 12.5181 3.74362C12.7406 2.57732 13.3276 1.48226 14.3195 0.787149C15.944 -0.261738 17.9509 -0.339012 19.5898 0.730438Z" fill="#090909"/>
</g>
<defs>
<clipPath id="clip0_131_359">
<rect width="34" height="34" fill="white"/>
</clipPath>
</defs>
</svg>
